<svg xmlns="http://www.w3.org/2000/svg" xmlns:xlink="http://www.w3.org/1999/xlink" width="128" height="128"><defs><linearGradient xlink:href="#a" id="b" x1="13.735" x2="38.1" y1="249.694" y2="292.767" gradientTransform="matrix(1.25984 0 0 1.25984 32.69 -269.922)" gradientUnits="userSpaceOnUse"/><linearGradient id="a"><stop offset="0" style="stop-color:#cdcdcd;stop-opacity:1"/><stop offset="1" style="stop-color:#d9d9d9;stop-opacity:1"/></linearGradient></defs><path fill="#f6f5f4" d="M28 8h50l30.043 29.918v74.059c0 4.433-3.61 8.023-8.043 8.023H28a7.98 7.98 0 0 1-8-8V16c0-4.434 3.566-8 8-8zm0 0"/><path fill="#deddda" d="M78 8v22c0 4.434 3.61 7.922 8.043 7.922l22-.004zm0 0"/><circle cx="64.023" cy="72.918" r="30" style="display:inline;fill:url(#b);fill-opacity:1;stroke:none;stroke-width:4.8767;stroke-linecap:round;stroke-linejoin:round;stroke-miterlimit:4;stroke-dasharray:none;stroke-opacity:1;enable-background:new"/><g style="display:inline;stroke-width:.913043;enable-background:new" transform="matrix(.26786 0 0 .26786 -48.483 45.5)"><path d="M420.021-9.636a112 112 0 0 0-112 112h112zm0 112v112a112 112 0 0 0 112-112z" style="display:inline;opacity:.2;fill:#fff;fill-opacity:1;stroke:none;stroke-width:.913043;stroke-linecap:round;stroke-linejoin:round;stroke-miterlimit:4;stroke-dasharray:none;stroke-opacity:1;enable-background:new"/><path d="M499.217 23.168a112 112 0 0 0-158.392 0l79.196 79.196zm-79.196 79.196-79.196 79.196a112 112 0 0 0 158.392 0z" style="display:inline;opacity:.02;fill:#000;fill-opacity:1;stroke:none;stroke-width:.913043;stroke-linecap:round;stroke-linejoin:round;stroke-miterlimit:4;stroke-dasharray:none;stroke-opacity:1;enable-background:new"/><path d="M389.47-5.387a112 112 0 0 0-2.034.688 112 112 0 0 1 5.416-1.467 112 112 0 0 0-3.382.779zm8.82-2.032a112 112 0 0 1 5.517-.916 112 112 0 0 0-5.517.916zM382.15-2.91a112 112 0 0 0-5.236 2 112 112 0 0 1 5.237-2zm27.22-6.131a112 112 0 0 1 5.56-.361 112 112 0 0 0-5.56.36zM371.84 1.393a112 112 0 0 0-5.034 2.524 112 112 0 0 1 5.034-2.524zM420.545-9.55a112 112 0 0 1 5.586.2 112 112 0 0 0-5.586-.2zM362.01 6.704a112 112 0 0 0-4.763 3.015 112 112 0 0 1 4.763-3.015zm69.688-15.646a112 112 0 0 1 5.553.757 112 112 0 0 0-5.553-.757zm-78.95 21.917a112 112 0 0 0-4.438 3.478 112 112 0 0 1 4.439-3.478zm90.023-20.193a112 112 0 0 1 5.411 1.298 112 112 0 0 0-5.41-1.298zM342.547 21.575a112 112 0 0 0-1.27 1.183 112 112 0 0 1 1.27-1.183zm-1.676 1.623a112 112 0 0 0-17.831 23.164l96.994 56zm79.163 79.164 79.163 79.164a112 112 0 0 0 17.83-23.164zm33.56-106.763a112 112 0 0 1 5.265 1.834 112 112 0 0 0-5.265-1.834zM464.079-.52a112 112 0 0 1 5.082 2.365 112 112 0 0 0-5.082-2.365zm10.05 4.912a112 112 0 0 1 1.838 1.09l.066-.114a112 112 0 0 0-1.903-.976zm-110.028 194.85-.067.114a112 112 0 0 0 1.904.976 112 112 0 0 1-1.838-1.09zm6.806 3.637a112 112 0 0 0 5.082 2.365 112 112 0 0 1-5.082-2.365zm10.301 4.412a112 112 0 0 0 5.266 1.834 112 112 0 0 1-5.266-1.834zm117.583-25.325a112 112 0 0 1-1.27 1.183 112 112 0 0 0 1.27-1.183zm-106.906 28.678a112 112 0 0 0 5.411 1.298 112 112 0 0 1-5.41-1.298zm99.872-22.373a112 112 0 0 1-4.438 3.478 112 112 0 0 0 4.438-3.478zm-88.94 24.638a112 112 0 0 0 5.553.757 112 112 0 0 1-5.553-.757zm80.004-17.904a112 112 0 0 1-4.763 3.015 112 112 0 0 0 4.763-3.015zm-68.884 19.07a112 112 0 0 0 5.585.2 112 112 0 0 1-5.585-.2zm59.325-13.268a112 112 0 0 1-5.034 2.524 112 112 0 0 0 5.034-2.524zm-48.124 13.32a112 112 0 0 0 5.56-.362 112 112 0 0 1-5.56.361zm38.016-8.492a112 112 0 0 1-5.237 2 112 112 0 0 0 5.237-2zm-26.893 7.424a112 112 0 0 0 5.517-.916 112 112 0 0 1-5.517.916zm16.37-3.636a112 112 0 0 1-5.416 1.467 112 112 0 0 0 5.416-1.467z" style="display:inline;opacity:1;fill:#faf8f6;fill-opacity:1;stroke:none;stroke-width:.913043;stroke-linecap:round;stroke-linejoin:round;stroke-miterlimit:4;stroke-dasharray:none;stroke-opacity:1;enable-background:new"/><circle cx="420.021" cy="-102.364" r="40" style="display:inline;opacity:1;fill:#aea795;fill-opacity:1;stroke:none;stroke-width:2.52024;stroke-linecap:round;stroke-linejoin:round;stroke-miterlimit:4;stroke-dasharray:none;stroke-dashoffset:0;stroke-opacity:1;enable-background:new" transform="scale(1 -1)"/><circle cx="420.021" cy="102.364" r="36" style="display:inline;opacity:1;fill:#faf8f6;fill-opacity:1;stroke:none;stroke-width:2.34783;stroke-linecap:round;stroke-linejoin:round;stroke-miterlimit:4;stroke-dasharray:none;stroke-dashoffset:0;stroke-opacity:1;enable-background:new"/><circle cx="420.021" cy="102.364" r="14" style="display:inline;opacity:1;fill:#4d4d4d;fill-opacity:1;stroke:none;stroke-width:3.19565;stroke-linecap:round;stroke-linejoin:round;stroke-miterlimit:4;stroke-dasharray:none;stroke-dashoffset:0;stroke-opacity:1;enable-background:new"/></g></svg>