<?xml version="1.0" encoding="UTF-8" standalone="no"?>
<svg
   height="128px"
   viewBox="0 0 128 128"
   width="128px"
   version="1.1"
   id="svg1615"
   sodipodi:docname="text-css.svg"
   inkscape:version="1.2.2 (b0a8486541, 2022-12-01)"
   xmlns:inkscape="http://www.inkscape.org/namespaces/inkscape"
   xmlns:sodipodi="http://sodipodi.sourceforge.net/DTD/sodipodi-0.dtd"
   xmlns="http://www.w3.org/2000/svg"
   xmlns:svg="http://www.w3.org/2000/svg">
  <defs
     id="defs1619" />
  <sodipodi:namedview
     id="namedview1617"
     pagecolor="#ffffff"
     bordercolor="#000000"
     borderopacity="0.25"
     inkscape:showpageshadow="2"
     inkscape:pageopacity="0.0"
     inkscape:pagecheckerboard="0"
     inkscape:deskcolor="#d1d1d1"
     showgrid="false"
     inkscape:zoom="5.953125"
     inkscape:cx="64"
     inkscape:cy="64"
     inkscape:window-width="1920"
     inkscape:window-height="1011"
     inkscape:window-x="0"
     inkscape:window-y="0"
     inkscape:window-maximized="1"
     inkscape:current-layer="svg1615" />
  <path
     d="m 28 8 h 50 l 30.042969 29.917969 v 74.058593 c 0 4.433594 -3.609375 8.023438 -8.042969 8.023438 h -72 c -4.433594 0 -8 -3.566406 -8 -8 v -96 c 0 -4.433594 3.566406 -8 8 -8 z m 0 0"
     fill="#f6f5f4"
     id="path1611" />
  <path
     d="m 78 8 v 22 c 0 4.433594 3.609375 7.921875 8.042969 7.921875 l 22 -0.003906 z m 0 0"
     fill="#deddda"
     id="path1613" />
  <path
     style="font-style:normal;font-variant:normal;font-weight:normal;font-stretch:normal;font-size:medium;line-height:1000%;font-family:Ubuntu;-inkscape-font-specification:Ubuntu;text-align:center;letter-spacing:0px;word-spacing:0px;text-anchor:middle;display:inline;fill:#5884f4;fill-opacity:1;stroke:none;stroke-width:2.77642px;stroke-linecap:butt;stroke-linejoin:miter;stroke-opacity:1;enable-background:new"
     d="m 75.127182,42.918 v 4.609298 c 1.888496,0.108392 3.298448,0.521851 4.164637,1.27976 1.051682,0.841339 1.578009,2.478503 1.578009,4.918391 v 9.717486 c 0,2.776425 0.358547,4.922337 1.073699,6.436749 0.757214,1.51442 1.809868,2.694265 3.156017,3.535605 -1.346149,0.841343 -2.398803,2.021192 -3.156017,3.535604 -0.715152,1.514412 -1.073699,3.660325 -1.073699,6.436745 v 9.71749 c 0,2.43989 -0.526327,4.07705 -1.578009,4.91839 -0.866189,0.75791 -2.276141,1.17137 -4.164637,1.27976 V 103.918 c 1.944192,-0.0457 3.637311,-0.24482 4.98346,-0.65614 1.556492,-0.46274 2.799941,-1.15685 3.725407,-2.08232 0.925465,-0.92548 1.57898,-2.059322 1.957601,-3.405462 0.378593,-1.34615 0.563948,-2.88455 0.563948,-4.6093 V 81.809636 c 0,-0.757211 0.104115,-1.497317 0.314513,-2.212466 0.252377,-0.757206 0.61098,-1.405298 1.073699,-1.95217 0.504809,-0.588938 1.117733,-1.05168 1.832884,-1.388213 0.618477,-0.327448 1.368361,-0.486879 2.207036,-0.531427 v -4.61472 c -0.838703,-0.03923 -1.588532,-0.180718 -2.207036,-0.471776 -0.715151,-0.378601 -1.328075,-0.84134 -1.832884,-1.388212 -0.462719,-0.588938 -0.821294,-1.242456 -1.073699,-1.957596 -0.210453,-0.757206 -0.314513,-1.514898 -0.314513,-2.272115 v -11.35514 c 0,-1.724749 -0.185466,-3.263154 -0.563948,-4.609301 C 85.415029,47.710359 84.761514,46.599517 83.836049,45.716117 82.910583,44.79064 81.667134,44.096534 80.110642,43.633798 78.764521,43.185086 77.071318,42.968209 75.127182,42.918 Z m -22.211396,0.01083 c -1.872643,0.06053 -3.533612,0.269896 -4.875013,0.704954 -1.514401,0.462735 -2.734862,1.156841 -3.660327,2.082318 -0.925466,0.8834 -1.579009,1.994242 -1.957602,3.340383 -0.378593,1.346147 -0.563947,2.884553 -0.563947,4.609301 v 11.355141 c 0,0.757211 -0.127161,1.514908 -0.379593,2.272114 -0.210453,0.715141 -0.568889,1.368658 -1.073699,1.957596 -0.462747,0.546873 -1.052654,1.009611 -1.767805,1.388213 -0.662705,0.31187 -1.465008,0.465245 -2.380562,0.488042 v 4.582186 c 0.915443,0.02582 1.71794,0.196877 2.380562,0.547695 0.715151,0.336533 1.305058,0.799274 1.767805,1.388212 0.50481,0.546864 0.863357,1.194973 1.073699,1.952171 0.252377,0.715143 0.379593,1.45526 0.379593,2.212466 v 11.355136 c 0,1.72475 0.185465,3.26315 0.563947,4.6093 0.378593,1.34614 1.032136,2.479992 1.957602,3.405462 0.925465,0.92547 2.145926,1.61958 3.660327,2.08232 1.341429,0.3988 3.002342,0.5902 4.875013,0.6453 v -4.609302 c -1.807814,-0.1243 -3.1812,-0.53935 -4.05619,-1.27433 -1.009619,-0.84134 -1.51293,-2.47851 -1.51293,-4.9184 v -9.71748 c 0,-2.776425 -0.37615,-4.922337 -1.133336,-6.436749 -0.715151,-1.514404 -1.75023,-2.694245 -3.09638,-3.535588 1.34615,-0.84134 2.381229,-2.021185 3.09638,-3.535605 0.757186,-1.514412 1.133336,-3.660324 1.133336,-6.436749 v -9.717486 c 0,-2.439888 0.503311,-4.077052 1.51293,-4.918391 0.87499,-0.734981 2.248376,-1.150046 4.05619,-1.274338 z"
     id="path941"
     inkscape:connector-curvature="0"
     sodipodi:nodetypes="cccsscccssccccscssccccccccssccccccccssccccccccsscsccccsscccssccc" />
</svg>
