<svg xmlns="http://www.w3.org/2000/svg" xmlns:xlink="http://www.w3.org/1999/xlink" width="128" height="128"><defs><linearGradient xlink:href="#a" id="b" x1="87.635" x2="211.588" y1="95.75" y2="217.443" gradientTransform="matrix(.48912 0 0 .48912 -10.008 -3.394)" gradientUnits="userSpaceOnUse"/><linearGradient id="a"><stop offset="0" style="stop-color:#62237c;stop-opacity:1"/><stop offset="1" style="stop-color:#7839b7;stop-opacity:1"/></linearGradient></defs><path fill="#f6f5f4" d="M28 8h50l30.043 29.918v74.059c0 4.433-3.61 8.023-8.043 8.023H28a7.98 7.98 0 0 1-8-8V16c0-4.434 3.566-8 8-8zm0 0"/><path fill="#deddda" d="M78 8v22c0 4.434 3.61 7.922 8.043 7.922l22-.004zm0 0"/><path d="M64.58 42.918c-18.786 10.607-30.45 30.48-30.557 52.066 19.654 10.716 42.733 10.35 60.618.113a4.02 4.02 0 0 1 .01-.156c-.023-21.47-11.485-41.3-30.071-52.023Zm10.114 22.983c2.785 1.893 2.372 6.45 1.923 9.57-.57 3.437-3.866 9.087-8.147 12.775.553.794.877 1.772.873 2.815-2.653 1.34-5.286-.172-8.47-2.898-3.183-2.727-6.617-8.19-7.757-13.804a4.587 4.587 0 0 1-2.933-.679c.232-3.148 3.573-5.018 6.534-6.122 2.207-.822 7.006-1.24 11.534-.607 1.549.216 3.065.555 4.436 1.042a4.585 4.585 0 0 1 2.007-2.09z" style="display:inline;fill:url(#b);fill-opacity:1;stroke:none;stroke-width:1.62789;stroke-miterlimit:4;stroke-dasharray:none;stroke-opacity:1;enable-background:new"/></svg>