<svg height="24" width="24" xmlns="http://www.w3.org/2000/svg"><path d="M12 1.5c-.328 0-.662.018-.984.046l-.61 3.14a7.477 7.477 0 0 0-1.453.47L6.656 2.958c-.58.34-1.09.768-1.593 1.213l1.359 2.86a7.92 7.92 0 0 0-.89 1.218L2.39 7.833c-.264.616-.47 1.26-.61 1.916l2.766 1.5c-.03.252-.04.498-.047.75 0 .258.024.498.047.75l-2.766 1.5c.147.668.34 1.307.61 1.922l3.14-.422c.258.434.557.844.891 1.22l-1.36 2.858c.504.452 1.014.874 1.594 1.22l2.297-2.204c.457.205.95.358 1.453.469l.61 3.14a10.04 10.04 0 0 0 1.968 0l.61-3.14a7.5 7.5 0 0 0 1.453-.469l2.297 2.203c.58-.345 1.09-.767 1.593-1.219l-1.359-2.859c.334-.375.633-.785.89-1.219l3.141.422c.264-.62.47-1.26.61-1.922l-2.766-1.5c.024-.252.047-.492.047-.75s-.024-.498-.047-.75l2.766-1.5c-.141-.656-.346-1.3-.61-1.922l-3.14.422a7.559 7.559 0 0 0-.89-1.218l1.358-2.86c-.503-.445-1.013-.873-1.593-1.219l-2.297 2.204a7.509 7.509 0 0 0-1.453-.47l-.61-3.14A11.378 11.378 0 0 0 12 1.5zm0 6a4.501 4.501 0 0 1 0 9 4.501 4.501 0 0 1 0-9zm0 0" fill="#241f31"/></svg>