<svg height="24" width="24" xmlns="http://www.w3.org/2000/svg"><path d="M2.497 2.007c-.554 0-1 .446-1 1v11c0 .554.446 1 1 1h19.006c.554 0 1-.446 1-1v-11c0-.554-.446-1-1-1zm1.365 2H5.52v2h-2V4.399c0-.218.153-.392.343-.392zm2.657 0h2v2h-2zm3 0h2v2h-2zm3 0h1.656c.19 0 .344.174.344.392v1.608h-2zm2.984 0h2v2h-2zm3 0h2v2h-2zm-13.984 3h2v2h-2zm3 0h2v2h-2zm3 0h2v2h-2zm2.984 0h2v2h-2zm3 0h2v2h-2zm-9.662 4h10.312c.19 0 .344.174.344.392v1.215c0 .218-.154.393-.344.393H6.841c-.19 0-.344-.175-.344-.393V11.4c0-.218.154-.392.344-.392zM17 17.993l-4.995 4-5.005-4z" fill="#241f31"/></svg>