<svg height="20" width="20" xmlns="http://www.w3.org/2000/svg"><path d="M10.926 2.32c-.836.075-1.817-.136-2.446.575-.18.503-.394.73-.945.617-.797-.051-1.703.054-2.187.773-.555.832-.317 1.86-.368 2.793v1.504c-.511-.32-1.132-.133-1.699-.184a6.785 6.785 0 0 0-1.32.094c.059 2.684.074 5.371.121 8.059.094 1.3 1.23 2.402 2.547 2.422.633.015 1.48.007 2.223.011 3.222-.011 6.445.051 9.668-.054 1.16-.121 2.21-1.188 2.07-2.399v-9.48c-.707-.938-1.817-1.781-3.059-1.57-.3-.454-.488-1.473-1.226-1.797-.356-.293-.84-.11-1.262-.164-.297-.07-.855.195-.867-.25-.16-.524-.719-.91-1.25-.95zm-.106 1.504c.164.27.184.754.22 1.125.007.008.019.004.026.012h-.027l.496 5.898.664-5.84 1.344.004c.535.391.414 1.141.555 1.723-.012.066.007.094.015.137l.012.086.48 3.863.665-3.918c.574-.039 1.156.04 1.558.5.41.219.215.691.262 1.059v8.343c-.34.965-1.602.547-2.375.66-3.371.012-6.742.036-10.113-.015-.977-.027-1.141-1.07-1.04-1.84-.011-1.906-.046-3.816-.078-5.723.325.008.676-.011.989.012.492.914.484 2 .507 3.016.493-.008 1.043.039 1.5 0 .008-2.52-.02-5.04.012-7.559.106-.52.73-.308 1.113-.355h.676l.489 5.847.668-5.875h-.004c.03-.382-.149-.894.25-1.12zm0 0" fill="#241f31"/></svg>