<svg height="16" width="16" xmlns="http://www.w3.org/2000/svg"><g fill="#2e3436"><path d="M2.176 0h3.648C7.027 0 8 .973 8 2.176v2.648A2.174 2.174 0 0 1 5.824 7H2.176A2.174 2.174 0 0 1 0 4.824V2.176C0 .973.973 0 2.176 0zm0 0"/><path d="m7.797 2.652 2.05-1.523a.712.712 0 0 1 1.137.57v3.606a.71.71 0 0 1-1.136.566L7.797 4.34a1.055 1.055 0 0 1 0-1.688zM9.043 7h2.914C12.531 7 13 7.45 13 8s-.469 1-1.043 1H9.043C8.469 9 8 8.55 8 8s.469-1 1.043-1zm0 0"/><path d="M7.012 8A2.009 2.009 0 0 0 5 10.012v3.976C5 15.102 5.898 16 7.012 16h6.976A2.009 2.009 0 0 0 16 13.988v-3.976A2.009 2.009 0 0 0 13.988 8zM10.5 9c1.379 0 2.5 1.121 2.5 2.5S11.879 14 10.5 14 8 12.879 8 11.5 9.121 9 10.5 9zm0 0"/></g></svg>