<svg height="16" width="16" xmlns="http://www.w3.org/2000/svg"><g fill="#2e3436"><path d="M6.93 8.012h4.14c1.067 0 1.93.863 1.93 1.93v3.14c0 1.066-.863 1.93-1.93 1.93H6.93A1.929 1.929 0 0 1 5 13.082v-3.14c0-1.067.863-1.93 1.93-1.93zm0 0"/><path d="m12.797 10.664 2.05-1.523a.712.712 0 0 1 1.137.57v3.605a.71.71 0 0 1-1.136.567l-2.051-1.531a1.055 1.055 0 0 1 0-1.688zM0 4.012A3.026 3.026 0 0 1 3.012 1h7.976A3.026 3.026 0 0 1 14 4.012v1.953a1 1 0 1 1-2 0V4.012A.988.988 0 0 0 10.988 3H3.012A.988.988 0 0 0 2 4.012v4.976A.988.988 0 0 0 3.012 10c.55 0 1 .45 1 1s-.45 1-1 1A3.026 3.026 0 0 1 0 8.988zm0 0"/></g></svg>