<svg height="16" width="16" xmlns="http://www.w3.org/2000/svg"><g fill="#2e3436"><path d="M9.043 6h1.914C11.531 6 12 6.45 12 7s-.469 1-1.043 1H9.043C8.469 8 8 7.55 8 7s.469-1 1.043-1zm0 0"/><path d="M7.012 6.965A2.009 2.009 0 0 0 5 8.977v4.011C5 14.102 5.898 15 7.012 15h5.976A2.009 2.009 0 0 0 15 12.988V8.977a2.009 2.009 0 0 0-2.012-2.012zM10 9a2 2 0 1 1-2 2c0-1.105.895-2 2-2zm0 0"/><path d="M0 4.012A3.026 3.026 0 0 1 3.012 1h7.976A3.026 3.026 0 0 1 14 4.012V5c0 .55-.45 1-1 1s-1-.45-1-1v-.988A.988.988 0 0 0 10.988 3H3.012A.988.988 0 0 0 2 4.012v4.976A.988.988 0 0 0 3.012 10c.55 0 1 .45 1 1s-.45 1-1 1A3.026 3.026 0 0 1 0 8.988zm0 0"/></g></svg>