<svg height="32" width="32" xmlns="http://www.w3.org/2000/svg"><path d="M3.5 2A3.514 3.514 0 0 0 0 5.5c0 1.387.82 2.594 2 3.156V12h2V8.965A3.53 3.53 0 0 0 6.965 6H9V4H6.656A3.506 3.506 0 0 0 3.5 2zm25 0a3.506 3.506 0 0 0-3.156 2H23v2h2.035A3.53 3.53 0 0 0 28 8.965V12h2V8.656A3.506 3.506 0 0 0 32 5.5C32 3.578 30.422 2 28.5 2zm-25 2C4.34 4 5 4.66 5 5.5S4.34 7 3.5 7 2 6.34 2 5.5 2.66 4 3.5 4zM11 4v2h4V4zm6 0v2h4V4zm11.5 0c.84 0 1.5.66 1.5 1.5S29.34 7 28.5 7 27 6.34 27 5.5 27.66 4 28.5 4zM2 14v4h2v-4zm26 0v4h2v-4zM2 20v3.344A3.506 3.506 0 0 0 0 26.5C0 28.422 1.578 30 3.5 30a3.506 3.506 0 0 0 3.156-2H9v-2H6.965A3.53 3.53 0 0 0 4 23.035V20zm26 0v3.035A3.53 3.53 0 0 0 25.035 26H23v2h2.344a3.506 3.506 0 0 0 3.156 2c1.922 0 3.5-1.578 3.5-3.5a3.506 3.506 0 0 0-2-3.156V20zM3.5 25c.84 0 1.5.66 1.5 1.5S4.34 28 3.5 28 2 27.34 2 26.5 2.66 25 3.5 25zm25 0c.84 0 1.5.66 1.5 1.5s-.66 1.5-1.5 1.5-1.5-.66-1.5-1.5.66-1.5 1.5-1.5zM11 26v2h4v-2zm6 0v2h4v-2zm0 0" fill="#241f31"/></svg>